<?xml version="1.0" standalone="no"?>
<!DOCTYPE svg PUBLIC "-//W3C//DTD SVG 20010904//EN"
 "http://www.w3.org/TR/2001/REC-SVG-20010904/DTD/svg10.dtd">
<svg version="1.0" xmlns="http://www.w3.org/2000/svg"
 width="512.000000pt" height="512.000000pt" viewBox="0 0 512.000000 512.000000"
 preserveAspectRatio="xMidYMid meet">
<metadata>
Created by potrace 1.14, written by Peter Selinger 2001-2017
</metadata>
<g transform="translate(0.000000,512.000000) scale(0.100000,-0.100000)"
fill="#000000" stroke="none">
<path d="M2426 4903 c-1 -1 -34 -5 -73 -8 -38 -3 -81 -8 -94 -11 -13 -3 -40
-7 -59 -9 -32 -4 -149 -28 -192 -40 -10 -3 -28 -7 -40 -10 -49 -11 -164 -48
-175 -58 -7 -5 -13 -7 -13 -4 0 3 -26 -5 -57 -19 -32 -14 -67 -29 -78 -33 -33
-14 -177 -87 -220 -111 -102 -57 -296 -195 -366 -260 -259 -240 -408 -431
-547 -702 -48 -95 -119 -257 -127 -293 -1 -5 -5 -17 -8 -25 -26 -62 -81 -293
-93 -388 -2 -20 -6 -48 -9 -62 -8 -40 -17 -188 -18 -285 -1 -377 87 -752 256
-1080 23 -44 44 -82 47 -85 3 -3 14 -21 24 -40 126 -234 430 -565 650 -710 13
-8 43 -28 67 -44 110 -74 152 -98 269 -154 157 -75 338 -140 465 -167 219 -47
336 -60 550 -59 178 0 251 6 385 30 19 4 44 8 55 10 73 11 230 56 340 96 96
35 292 125 350 161 52 31 218 138 228 147 217 173 352 307 465 458 31 42 59
79 62 82 3 3 24 34 46 70 145 230 226 415 295 670 21 80 38 146 38 148 -1 3
16 114 28 177 3 22 7 141 7 265 0 192 -3 269 -18 360 -1 8 -6 38 -10 65 -20
123 -113 445 -137 470 -5 5 -9 15 -9 21 0 21 -98 214 -158 312 -268 436 -667
774 -1131 957 -137 54 -346 112 -466 130 -23 3 -52 7 -65 10 -66 13 -454 28
-464 18z m269 -1168 c39 -3 78 -8 87 -11 10 -3 30 -7 45 -10 61 -10 217 -66
263 -95 8 -5 26 -14 39 -19 56 -24 182 -121 262 -201 185 -184 285 -386 336
-674 15 -83 3 -337 -18 -392 -5 -14 -8 -28 -5 -30 2 -3 -2 -20 -10 -39 -8 -19
-12 -34 -10 -34 7 0 -50 -134 -86 -205 -50 -96 -150 -231 -208 -282 -14 -11
-42 -37 -62 -56 -21 -19 -63 -52 -95 -73 -32 -21 -60 -41 -63 -44 -11 -11
-139 -71 -204 -95 -69 -26 -172 -51 -256 -62 -57 -7 -246 -7 -285 1 -16 4 -46
9 -65 12 -128 21 -272 78 -400 158 -36 22 -69 44 -75 48 -97 78 -160 140 -235
234 -16 20 -46 65 -67 99 -18 30 -95 186 -98 199 -1 6 -5 18 -8 26 -53 139
-77 400 -52 560 7 48 46 192 68 250 69 190 259 428 433 543 113 74 276 147
364 164 14 2 43 8 65 13 22 5 67 12 100 15 33 4 61 8 62 9 3 2 109 -3 178 -9z"/>
</g>
</svg>
